<?xml version="1.0" encoding="utf-8"?>
<!-- Generator: Adobe Illustrator 21.0.1, SVG Export Plug-In . SVG Version: 6.00 Build 0)  -->
<!DOCTYPE svg PUBLIC "-//W3C//DTD SVG 1.1//EN" "http://www.w3.org/Graphics/SVG/1.1/DTD/svg11.dtd">
<svg version="1.1" id="svg-icon" xmlns="http://www.w3.org/2000/svg" xmlns:xlink="http://www.w3.org/1999/xlink" x="0px" y="0px"
	 width="102" height="102" viewBox="0 0 136 136" style="enable-background:new 0 0 136 136;" xml:space="preserve">
<style type="text/css">
.icon-shape{fill:#6F6F6F;}
</style>
<g id="svg-icon">
	<path class="icon-shape" d="M68,24c-24.3,0-44,19.7-44,44s19.7,44,44,44s44-19.7,44-44S92.3,24,68,24z M55.8,29.9
	c-3.5,3.7-6.3,8.9-8.4,15.1c-3.4-1-6.5-2.3-9.1-3.8C42.9,36.1,48.9,32.1,55.8,29.9z M35.7,44.5c3.1,1.8,6.6,3.3,10.6,4.5
	c-1.4,5.1-2.2,10.9-2.3,17H28.1C28.5,58,31.3,50.6,35.7,44.5z M35.7,91.5C31.2,85.4,28.5,78,28.1,70H44c0.1,6.1,0.9,11.8,2.3,17
	C42.4,88.2,38.8,89.7,35.7,91.5z M38.2,94.7c2.7-1.5,5.7-2.8,9.1-3.8c2.1,6.3,4.9,11.5,8.4,15.1C48.9,103.9,42.9,99.9,38.2,94.7z
	 M65.9,107.8c-6-1.3-11.3-8.2-14.6-17.9c4.6-1.1,9.5-1.7,14.6-1.8V107.8z M65.9,84c-5.5,0.1-10.9,0.8-15.7,1.9
	C48.9,81.1,48.1,75.7,48,70h17.9V84z M65.9,66H48c0.1-5.7,0.9-11.1,2.2-16c4.9,1.2,10.2,1.8,15.7,2V66z M65.9,48
	c-5.1-0.1-10-0.8-14.6-1.8c3.3-9.8,8.6-16.6,14.6-17.9V48z M100.3,44.5c4.5,6.1,7.2,13.5,7.6,21.5H92c-0.1-6.1-0.9-11.8-2.3-17
	C93.6,47.8,97.2,46.3,100.3,44.5z M97.8,41.3c-2.7,1.5-5.7,2.8-9.1,3.8c-2.1-6.3-4.9-11.5-8.4-15.1C87.1,32.1,93.1,36.1,97.8,41.3z
	 M69.9,28.2c6.1,1.2,11.5,8.1,14.8,17.9c-4.6,1.1-9.6,1.7-14.8,1.9V28.2z M69.9,52c5.6-0.1,11-0.8,15.9-1.9c1.3,4.9,2,10.3,2.2,16
	H69.9V52z M69.9,70H88c-0.1,5.7-0.9,11.1-2.2,16c-4.9-1.2-10.3-1.9-15.9-2V70z M69.9,107.8V88c5.1,0.1,10.1,0.8,14.8,1.8
	C81.4,99.7,76,106.6,69.9,107.8z M80.2,106.1c3.5-3.7,6.3-8.9,8.4-15.1c3.4,1,6.5,2.3,9.1,3.8C93.1,99.9,87.1,103.9,80.2,106.1z
	 M100.3,91.5c-3.1-1.8-6.6-3.3-10.6-4.5c1.4-5.1,2.2-10.9,2.3-17h15.9C107.5,78,104.7,85.4,100.3,91.5z"/>
</g>
</svg>
